<svg width="17" height="18" viewBox="0 0 17 18" fill="none" xmlns="http://www.w3.org/2000/svg">
<rect width="17" height="18" fill="#62646A"/>
<g id="Landing Page">
<rect width="1440" height="4792" transform="translate(-986 -35)" fill="#FFFFFE"/>
<g id="Hero">
<g id="Hero Background">
<rect id="Rectangle 12" x="-986" y="-35" width="1440" height="900" fill="#EFF0F3"/>
</g>
</g>
<g id="Navbar">
<g id="Navbar Rectangle" filter="url(#filter0_d_118_1909)">
<rect x="-986" y="-35" width="1440" height="86" fill="#EFF0F3"/>
</g>
<g id="Nav Link And Nav CTA Button">
<g id="Navbar Link">
<g id="Search Nav">
<g id="Icon">
<path id="Vector" d="M7.08329 13.2501C8.34057 13.2498 9.56161 12.8289 10.552 12.0544L13.6658 15.1682L14.6674 14.1667L11.5536 11.0528C12.3285 10.0623 12.7497 8.84102 12.75 7.58341C12.75 4.45896 10.2077 1.91675 7.08329 1.91675C3.95883 1.91675 1.41663 4.45896 1.41663 7.58341C1.41663 10.7079 3.95883 13.2501 7.08329 13.2501ZM7.08329 3.33341C9.42717 3.33341 11.3333 5.23954 11.3333 7.58341C11.3333 9.92729 9.42717 11.8334 7.08329 11.8334C4.73942 11.8334 2.83329 9.92729 2.83329 7.58341C2.83329 5.23954 4.73942 3.33341 7.08329 3.33341Z" fill="#2B2C34"/>
</g>
</g>
</g>
</g>
</g>
</g>
<defs>
<filter id="filter0_d_118_1909" x="-995" y="-42" width="1466" height="112" filterUnits="userSpaceOnUse" color-interpolation-filters="sRGB">
<feFlood flood-opacity="0" result="BackgroundImageFix"/>
<feColorMatrix in="SourceAlpha" type="matrix" values="0 0 0 0 0 0 0 0 0 0 0 0 0 0 0 0 0 0 127 0" result="hardAlpha"/>
<feOffset dx="4" dy="6"/>
<feGaussianBlur stdDeviation="6.5"/>
<feComposite in2="hardAlpha" operator="out"/>
<feColorMatrix type="matrix" values="0 0 0 0 0.841667 0 0 0 0 0.841667 0 0 0 0 0.841667 0 0 0 0.25 0"/>
<feBlend mode="normal" in2="BackgroundImageFix" result="effect1_dropShadow_118_1909"/>
<feBlend mode="normal" in="SourceGraphic" in2="effect1_dropShadow_118_1909" result="shape"/>
</filter>
</defs>
</svg>
